<?xml version="1.0" encoding="UTF-8"?><svg id="Layer_2" xmlns="http://www.w3.org/2000/svg" width="155.78" height="177.48" viewBox="0 0 155.78 177.48"><defs><style>.cls-1{fill:#a0c4d8;}</style></defs><g id="Layer_1-2"><path class="cls-1" d="M2.43,87.88c.07-1.3,1.6-1.89,2.85-2.23,8.11-2.23,15.77-6.99,20.18-14.16,2.9-4.71,4.26-10.18,5.59-15.55,1.95-7.92,3.9-15.83,5.86-23.75,5.31,9.67,7.89,20.78,14.22,29.8,7.18,10.24,18.86,16.95,31.19,19.07.93.16,2.18.88,1.69,1.69-.13.21-.35.34-.57.46-15.43,8.8-26.59,24.72-29.59,42.23-.29,1.69-.51,3.39-.53,5.1-.03,2.11.25,4.24-.03,6.33-.18,1.34-.58,2.65-1.18,3.86-.1.21-.22.42-.41.55-.71.49-1.51-.46-1.85-1.25-3.47-8.24-6.46-16.71-10.78-24.54-4.31-7.83-10.11-15.11-17.88-19.53-2.98-1.69-6.18-2.93-9.38-4.16-3.18-1.23-6.36-2.46-9.54-3.68l.14-.24h.02Z"/><path class="cls-1" d="M128.64,115.98c-3.29-.88-5.5-4.01-6.65-7.21s-1.51-6.64-2.67-9.84c-.43-1.19-1.42-2.57-2.63-2.21-1.04.31-1.3,1.63-1.42,2.7-.72,6.33-3.05,12.48-6.69,17.71-.69.99-1.43,1.95-2.36,2.72-1.27,1.04-2.82,1.66-4.35,2.27-1.43.57-2.87,1.14-4.3,1.7-.38.15-.78.32-.99.67-.44.72.24,1.63.98,2.03,1.71.9,3.77.57,5.7.72,4.33.34,8.11,3.25,10.68,6.76s4.17,7.61,5.99,11.55c.81,1.75,1.7,3.52,3.09,4.87.24.23.52.46.86.47.67.02,1.02-.79,1.16-1.45,1.07-4.94,1.27-10.08,2.92-14.85.88-2.54,2.21-5.02,4.32-6.69,3.72-2.95,9.14-2.94,12.9-5.83.61-.47,1.22-1.28.82-1.94-.16-.27-.45-.43-.74-.57-5.55-2.66-9.37-2.64-16.86-3.97l.24.4h0Z"/><path class="cls-1" d="M7.12,140.03c-.64-.34-.94-1.1-1.03-1.81s0-1.45-.08-2.17c-.03-.27-.17-.6-.44-.59-.23,0-.35.27-.43.49-.46,1.28-1.24,2.44-2.24,3.34-.19.17-.39.34-.62.45-.31.15-.67.21-1.01.26-.32.05-.65.1-.97.14-.09,0-.18.03-.24.09-.13.13-.03.35.11.47.31.27.75.3,1.15.43.88.28,1.52,1.07,1.88,1.92s.49,1.78.68,2.68c.08.4.18.81.4,1.16.04.06.09.12.15.14.14.04.25-.11.31-.24.46-.97.75-2.02,1.32-2.93.31-.48.7-.93,1.22-1.18.91-.43,2.03-.17,2.95-.58.15-.07.31-.21.26-.36-.02-.06-.07-.11-.13-.15-1.02-.82-1.81-1-3.3-1.64l.03.09h.03Z"/><path class="cls-1" d="M67.54,170.47c-.64-.34-.94-1.1-1.03-1.81s0-1.45-.08-2.17c-.03-.27-.17-.6-.44-.59-.23,0-.35.27-.43.49-.46,1.28-1.24,2.44-2.24,3.34-.19.17-.39.34-.62.45-.31.15-.67.21-1.01.26-.32.05-.65.1-.97.14-.09,0-.18.03-.24.09-.13.13-.03.35.11.47.31.27.75.3,1.15.43.88.28,1.52,1.07,1.88,1.92s.49,1.78.68,2.68c.08.4.18.81.4,1.16.04.06.09.12.15.14.14.04.25-.11.31-.24.46-.97.75-2.02,1.32-2.93.31-.48.7-.93,1.22-1.18.91-.43,2.03-.17,2.95-.58.15-.07.31-.21.26-.36-.02-.06-.07-.11-.13-.15-1.02-.82-1.81-1-3.3-1.64l.03.09h.03Z"/><path class="cls-1" d="M93.82,29.85c.14-.3.67-.26,1.08-.2,2.71.42,5.51.18,7.52-1.01,1.32-.78,2.24-1.93,3.13-3.05,1.32-1.66,2.64-3.31,3.96-4.97.77,2.93.56,5.88,1.7,8.77,1.29,3.28,4.3,6.25,7.92,8.21.27.15.59.47.37.6-.06.04-.14.04-.22.04-5.57.29-10.46,2.77-12.97,6.59-.24.37-.46.75-.63,1.15-.2.5-.31,1.04-.58,1.51-.18.3-.42.56-.71.78-.05.04-.11.07-.18.08-.26.03-.43-.29-.46-.51-.33-2.37-.49-4.74-1.11-7.11s-1.76-4.79-3.76-6.75c-.77-.75-1.65-1.42-2.52-2.09-.87-.67-1.74-1.33-2.62-2l.07-.04h.01Z"/><path class="cls-1" d="M123.02,65.43c-.57.44-1.39.42-2.08.2s-1.32-.6-2.01-.81c-.26-.08-.62-.09-.71.16-.08.22.11.43.28.59.98.94,1.72,2.12,2.14,3.41.08.24.15.49.16.75.01.35-.08.69-.18,1.03-.09.32-.18.63-.26.95-.02.08-.05.17-.01.25.07.17.31.17.47.09.37-.17.58-.57.86-.87.62-.69,1.59-.96,2.52-.94s1.82.27,2.73.47c.4.09.82.16,1.22.1.07-.01.15-.03.19-.08.09-.11,0-.27-.1-.38-.7-.82-1.54-1.51-2.14-2.4-.32-.48-.57-1.02-.58-1.59-.02-1.01.68-1.93.67-2.94,0-.16-.06-.37-.22-.39-.07,0-.13.02-.19.05-1.16.6-1.65,1.25-2.84,2.35h.1-.02Z"/><path class="cls-1" d="M150.42,30.63c-.57.44-1.39.42-2.08.2s-1.32-.6-2.01-.81c-.26-.08-.62-.09-.71.16-.08.22.11.43.28.59.98.94,1.72,2.12,2.14,3.41.08.24.15.49.16.75,0,.35-.08.69-.18,1.03-.09.32-.18.63-.26.95-.02.08-.05.17,0,.25.07.17.31.17.47.09.37-.17.58-.57.86-.87.62-.69,1.59-.96,2.52-.94s1.82.27,2.73.47c.4.09.82.16,1.22.1.07,0,.15-.03.19-.08.09-.11,0-.27-.1-.38-.7-.82-1.54-1.51-2.14-2.4-.32-.48-.57-1.02-.58-1.59-.02-1.01.68-1.93.67-2.94,0-.16-.06-.37-.22-.39-.07,0-.13.02-.19.05-1.16.6-1.65,1.25-2.84,2.35h.1-.02Z"/><path class="cls-1" d="M5.82,26.34c.07-.14.27-.14.43-.12,1.03.13,2.12-.04,2.96-.65.55-.4.97-.95,1.37-1.5.6-.8,1.2-1.61,1.79-2.41.14,1.35-.09,2.73.19,4.06.33,1.5,1.33,2.82,2.63,3.65.1.06.2.2.11.27-.02.02-.06.02-.09.03-2.17.26-4.19,1.54-5.36,3.38-.11.18-.22.36-.3.55-.1.24-.17.49-.3.72-.08.14-.19.27-.32.38-.02.02-.04.04-.07.04-.1.02-.15-.12-.15-.23,0-1.1.06-2.2-.05-3.29s-.43-2.19-1.1-3.06c-.26-.33-.56-.63-.87-.92-.3-.29-.6-.58-.91-.87l.03-.02h.01Z"/><path class="cls-1" d="M66.15,4.68c.07-.14.27-.14.43-.12,1.03.13,2.12-.04,2.96-.65.55-.4.97-.95,1.37-1.5.6-.8,1.2-1.61,1.79-2.41.14,1.35-.09,2.73.19,4.06.33,1.5,1.33,2.82,2.63,3.65.1.06.2.2.11.27-.02.02-.06.02-.09.03-2.17.26-4.19,1.54-5.36,3.38-.11.18-.22.36-.3.55-.1.24-.17.49-.3.72-.08.14-.19.27-.32.38-.02.02-.04.04-.07.04-.1.02-.15-.12-.15-.23,0-1.1.06-2.2-.05-3.29s-.43-2.19-1.1-3.06c-.26-.33-.56-.63-.87-.92-.3-.29-.6-.58-.91-.87l.03-.02h.01Z"/></g></svg>