<?xml version="1.0" encoding="UTF-8"?><svg id="Layer_2" xmlns="http://www.w3.org/2000/svg" width="72.61" height="75.42" viewBox="0 0 72.61 75.42"><defs><style>.cls-1{fill:#e4c169;}</style></defs><g id="Layer_1-2"><path class="cls-1" d="M14.44,12.25c.9-4.08,1.8-8.17,2.69-12.25,5.86,8.22,7.79,10.25,8.31,10.25h1s13.76-.98,14-1c-9.08,8.21-12.46,10.51-13,10-.2-.19-.2-.91,0-1,.23-.1.74.63,1,1,1.25,1.77,3.81,9.03,5.52,14.12-4.35-1.58-8.69-3.16-13.04-4.74-.26-.1-.54-.19-.82-.16-.35.04-.64.27-.91.49-3.4,2.78-6.8,5.55-10.2,8.33-.57-1.45-.28-3.08.01-4.61.74-3.84,1.48-7.67,2.22-11.51-3.87-1.21-7.63-2.76-11.22-4.64,2.58-.91,5.32-1.8,8.21-2.63,2.14-.61,4.21-1.16,6.23-1.64h0Z"/><path class="cls-1" d="M29.42,63.44l-2.97,8.82c5-3,4-3,6.44-4.47.06-.04.13-.06.2-.05.08.01.14.08.2.15,2.15,2.51,4.3,5.02,6.46,7.53.41-3.53.41-7.11,0-10.65,0-.1-.02-.21,0-.31.04-.12.15-.2.25-.27,2.55-1.88,5.11-3.75,7.66-5.63-2.79-.28-5.6-.29-8.39-.03-.1,0-.21.02-.3-.04,0,0-.09-.05-.14-.17-.13-.29-2.14-7.18-2.4-8.07-1.75,3.69-3.03,6.36-3.19,6.69-.03.07-.11.23-.28.29-.13.05-.28,0-.41-.03-2.75-.82-5.59-1.32-8.45-1.49,1.6,2.43,3.48,4.67,5.58,6.68l-.28,1.05h0Z"/><path class="cls-1" d="M57.74,27.07l-9.28.72c4.72,3.42,4.33,2.5,6.64,4.18.06.04.11.1.12.17.02.08-.02.17-.06.24-1.47,2.96-2.93,5.93-4.4,8.89,3.41-1.01,6.7-2.41,9.79-4.18.09-.05.18-.1.29-.11.12,0,.24.06.35.12,2.73,1.61,5.45,3.23,8.18,4.84-.83-2.67-1.93-5.27-3.26-7.73-.05-.09-.1-.19-.08-.29,0,0,.02-.1.1-.19.22-.23,5.77-4.79,6.48-5.37-4.08-.16-7.04-.29-7.4-.31-.08,0-.25-.01-.38-.14-.1-.1-.12-.25-.14-.39-.32-2.85-.97-5.66-1.94-8.36-1.61,2.42-2.93,5.03-3.95,7.75l-1.07.15h0Z"/></g></svg>