<?xml version="1.0" encoding="UTF-8"?><svg id="Layer_2" xmlns="http://www.w3.org/2000/svg" width="354.95" height="300.36" viewBox="0 0 354.95 300.36"><defs><style>.cls-1{fill:#579395;}</style></defs><g id="Layer_1-2"><path class="cls-1" d="M152.62,227c11.91,1.3,22.4,8.12,32.52,13.99,11.02,6.4,22.07,12.79,32.92,19.46,3.83,2.35,8.28,5.31,9.53,9.91.27,1.01.6,2.38-.37,3.1-1.07.8-2.84.96-4.1,1.27-2.96.72-5.94,1.33-8.94,1.82-6.27,1.03-12.62,1.52-18.97,1.51-5.67,0-11.64-.24-16.91-2.57-2.98-1.32-5.34-3.52-8.1-5.19s-5.97-2.58-9.05-3.55c-6.9-2.17-13.8-4.33-20.71-6.5-1.85-.58-2.64,2.32-.8,2.89,6.59,2.07,13.18,4.14,19.76,6.2,3,.94,6.15,1.73,8.89,3.31s4.93,3.69,7.71,5.05c5.35,2.63,11.39,3.22,17.27,3.32,6.62.12,13.24-.34,19.79-1.3,3.33-.49,6.63-1.12,9.91-1.89,2.47-.58,6.05-.96,7.36-3.49,1.18-2.28.2-5.31-.92-7.43-1.18-2.23-2.99-4.1-4.94-5.66-4.65-3.72-10.1-6.52-15.2-9.56-5.96-3.54-11.94-7.06-17.92-10.56-6.34-3.7-12.63-7.55-19.18-10.85-6.18-3.11-12.65-5.55-19.56-6.3-1.92-.21-1.9,2.79,0,3h0v.02Z"/><path class="cls-1" d="M179.87,300c4.04-3.38,9.46-4.65,13.94-7.33,5.28-3.16,10.35-6.73,15.5-10.11,1.61-1.06.11-3.65-1.51-2.59-5.27,3.46-10.44,7.15-15.88,10.33-4.64,2.72-9.98,4.08-14.16,7.57-1.48,1.24.65,3.35,2.12,2.12h0Z"/><path class="cls-1" d="M232.5,270.32c5.35-.02,9.46-3.59,13.63-6.48,4.7-3.26,9.7-6.05,14.73-8.76,10.55-5.67,21.17-11.23,31.81-16.74,6.15-3.18,12.32-6.34,18.5-9.48,1.72-.87.21-3.46-1.51-2.59-10.59,5.38-21.15,10.82-31.67,16.34-10.16,5.33-20.61,10.4-30.29,16.58-2.49,1.59-4.84,3.38-7.29,5.04s-4.95,3.07-7.91,3.08c-1.93,0-1.93,3.01,0,3h0Z"/><path class="cls-1" d="M314.44,223.71c-6.19-6.13-12.37-12.25-18.56-18.38l-1.06,2.56c8.76-.65,17.48,1.45,24.97,6.05,1.01.62,2.21-.19,2.26-1.3.36-8.52,3.37-16.71,8.5-23.51l-2.74-.36c2.37,9.18,4.75,18.37,7.12,27.55.15.59.81,1.16,1.45,1.1,5.9-.55,11.75-1.45,17.54-2.71l-1.46-2.51c-4.48,5.25-9.45,10.98-16.55,12.37-1.03.2-1.27,1.4-.9,2.2,3.96,8.45,7.91,16.9,11.87,25.35l2.05-2.05c-8.99-5.57-17.97-11.15-26.96-16.72-.54-.34-1.38-.24-1.82.23-5.15,5.58-11.21,10.16-17.98,13.6l2.2,1.69c2.42-8.23,5.83-16.11,10.16-23.51.98-1.67-1.61-3.18-2.59-1.51-4.46,7.61-7.98,15.76-10.46,24.22-.39,1.32,1.08,2.26,2.2,1.69,6.98-3.54,13.28-8.32,18.58-14.07l-1.82.23c8.99,5.57,17.97,11.15,26.96,16.72,1.37.85,2.65-.78,2.05-2.05-3.96-8.45-7.91-16.9-11.87-25.35l-.9,2.2c7.61-1.49,13.06-7.51,17.87-13.14.97-1.14.05-2.84-1.46-2.51-5.53,1.2-11.11,2.08-16.74,2.6l1.45,1.1c-2.37-9.18-4.75-18.37-7.12-27.55-.35-1.37-2.01-1.33-2.74-.36-5.45,7.21-8.53,16-8.91,25.02l2.26-1.3c-7.9-4.86-17.23-7.15-26.48-6.46-1.25.09-2.04,1.6-1.06,2.56,6.19,6.13,12.37,12.25,18.56,18.38,1.37,1.36,3.5-.76,2.12-2.12h0v.05Z"/><path class="cls-1" d="M132.65,131.34c-12.29.06-24.47-2.6-36.75-2.13-5.81.22-11.54,1.31-16.9,3.59-2.29.97-3.92,2.16-5.78,3.78-7.59,6.59-14.61,13.82-22.18,20.43-4.63,4.05-9.54,7.77-13.96,12.06s-7.85,8.82-10.47,14.15c-5.04,10.28-6.73,21.73-9.03,32.84-1.17,5.68-2.51,11.35-4.52,16.8-2.19,5.92-5.57,11.25-8.29,16.92-2.93,6.1-4.37,12.42-4.67,19.18-.15,3.43-.11,6.88,0,10.31.09,2.64,1.29,5.16,4.3,5.1,2.6-.05,4.79-1.72,6.67-3.33,2.77-2.38,5.55-4.77,8.32-7.15,5.53-4.75,11.07-9.51,16.6-14.26,4.89-4.2,9.74-8.51,13.31-13.94s6.29-11.81,9.1-17.82c5.67-12.12,10.99-24.51,14.17-37.55.8-3.29,1.46-6.61,1.96-9.96.23-1.51-1.96-2.85-2.74-1.16-4.98,10.83-4.89,23.61.61,34.24,5.13,9.93,14.39,17.05,25.13,19.93,6.02,1.61,12.31,2.09,18.52,2.21,5.58.11,11.19-.17,16.67-1.23s10.6-2.89,15.12-5.95c4.61-3.12,8.29-7.41,10.84-12.35,6.64-12.87,5.34-27.78,1.81-41.35l-2.74,1.16c3.24,6.26,6.48,12.52,9.49,18.89,2.87,6.07,5.35,12.29,7.95,18.47,2.46,5.86,5.26,11.49,9.21,16.5,3.66,4.64,8.07,8.59,12.75,12.16,5.35,4.08,11.08,7.62,16.81,11.14.74.45,2.07.07,2.2-.9,1.86-13.39.12-26.8-1.86-40.08-.92-6.19-1.71-12.56-4.68-18.16-2.78-5.25-7.16-9.58-11.14-13.92-4.27-4.66-8.66-9.25-13.5-13.32s-9.82-7.32-14.88-10.73c-5.95-4.01-12.35-7.64-17.87-12.24-2.11-1.76-3.78-3.78-5.56-5.86-3.54-4.15-8.56-6.51-14.03-6.47-1.93,0-1.93,3.01,0,3,4.68-.03,8.79,1.98,11.83,5.51,1.54,1.79,2.96,3.61,4.74,5.19,4.83,4.29,10.53,7.6,15.89,11.15,4.64,3.08,9.28,6.19,13.79,9.47,4.89,3.55,9.27,7.77,13.44,12.12s8.32,8.57,11.89,13.27,5.39,10.51,6.38,16.54c2.36,14.32,4.67,29.24,2.66,43.73l2.2-.9c-9.91-6.08-20.05-12.32-27.67-21.26-4.02-4.73-6.9-10.19-9.35-15.86-2.63-6.1-5-12.3-7.81-18.33-3.25-6.97-6.78-13.8-10.31-20.63-.79-1.54-3.16-.46-2.74,1.16,2.98,11.48,4.42,23.83.19,35.2-1.81,4.85-4.66,9.35-8.53,12.82s-8.57,5.69-13.5,7.05-10.17,1.91-15.33,2.02c-5.61.12-11.31-.08-16.85-.98s-10.87-2.57-15.62-5.55c-4.18-2.62-7.84-6.13-10.63-10.21-7.01-10.28-8.14-23.82-2.94-35.13l-2.74-1.16c-1.95,13.01-6.35,25.47-11.6,37.48-2.6,5.95-5.38,11.81-8.19,17.65-2.75,5.71-5.74,11.07-10.18,15.66s-9.77,8.84-14.75,13.11c-5.36,4.6-10.72,9.21-16.07,13.81-1.7,1.46-3.97,4.07-6.44,4.08-1.22,0-1.26-1.1-1.3-2.1-.06-1.72-.08-3.44-.09-5.15-.04-6.52.4-13.03,2.75-19.17,2.23-5.83,5.73-11.06,8.31-16.73,2.32-5.1,3.93-10.47,5.21-15.92,2.53-10.74,3.84-21.84,7.66-32.24,1.91-5.21,4.56-10.19,8.14-14.46,3.81-4.55,8.4-8.35,12.94-12.13,8.35-6.94,16.05-14.6,24.09-21.89,1.11-1.01,2.23-2.01,3.36-2.99.41-.35.82-.7,1.23-1.05.16-.13.32-.26.49-.4.38-.3-.08.05.27-.21,1.15-.83,2.53-1.35,3.85-1.86,2.6-1,5.3-1.74,8.05-2.21,11.19-1.93,22.69.38,33.88,1.15,3.13.22,6.27.34,9.42.32,1.93,0,1.93-3.01,0-3v.03Z"/><path class="cls-1" d="M79.1,168.58c1.62.35,3.18.04,4.77-.28.72-.15,1.22-.25,1.95-.24.61,0,1.04.13,1.53.43.91.56,1.54,1.65,1.83,2.77.41,1.58.27,3.26.17,4.87l2.56-1.06c-3.2-3.19-6.9-5.88-10.92-7.94-.72-.37-1.63-.19-2.05.54-.39.67-.19,1.68.54,2.05,3.81,1.95,7.28,4.45,10.31,7.47.96.96,2.48.21,2.56-1.06.22-3.6.08-7.59-3.08-9.95-1.45-1.08-3.19-1.24-4.93-.99-.79.11-1.57.3-2.36.44-.64.12-1.49.19-2.08.06-.79-.17-1.62.24-1.85,1.05-.21.75.25,1.67,1.05,1.85h0Z"/><path class="cls-1" d="M137.61,171.71c-.04-.15-.07-.31-.11-.46-.07-.31,0,.28,0-.07-.02-.27-.03-.54-.02-.82,0-.12.02-.23.03-.35-.04.41.02-.1.04-.18.05-.23.11-.46.19-.68.02-.07.22-.55.06-.19.05-.11.1-.21.15-.32.12-.25.26-.49.42-.72.07-.1.13-.19.2-.29-.22.3.09-.1.14-.16.17-.19.35-.37.54-.55.1-.09.21-.18.31-.27-.28.23.03,0,.07-.04.23-.15.46-.29.71-.41.13-.07.31-.13.07-.04.15-.06.29-.11.44-.16.11-.03.23-.06.34-.09.04,0,.49-.1.26-.06s.27-.02.31-.02c.15,0,.31,0,.46,0,.36,0,.73,0,1.09,0,.9-.02,1.71-.18,2.53-.55.71-.33.95-1.42.54-2.05-.47-.74-1.29-.89-2.05-.54.2-.09-.3.08-.35.09-.18.03-.2.04-.05.02-.1,0-.2.02-.3.02-.36.02-.72,0-1.09,0-.76,0-1.52.04-2.26.23-1.28.33-2.48,1.06-3.41,2-1.92,1.92-2.86,4.79-2.15,7.44.2.76,1.08,1.3,1.85,1.05s1.27-1.03,1.05-1.85h0v.03Z"/><path class="cls-1" d="M139.33,173.4c3.93-1.8,7.28-4.7,9.74-8.24.45-.65.14-1.69-.54-2.05-.77-.4-1.57-.15-2.05.54-.14.2-.28.4-.43.6,0,0-.23.31-.15.2.09-.12-.14.17-.16.2-.31.38-.63.76-.96,1.12-.67.73-1.38,1.41-2.14,2.04-.63.53-1.29,1.01-2.15,1.55s-1.75,1.02-2.67,1.44c-.72.33-.95,1.42-.54,2.05.48.74,1.29.89,2.05.54h0Z"/><path class="cls-1" d="M107.85,188.13c1.93.91,3.85,1.82,5.78,2.72l2.98,1.4c.9.43,1.86,1.03,2.85,1.21s1.77-.25,2.51-.84c.86-.7,1.69-1.43,2.54-2.14,1.71-1.45,3.42-2.89,5.13-4.34,1.48-1.25-.65-3.36-2.12-2.12s-2.82,2.38-4.23,3.57c-.7.6-1.41,1.19-2.11,1.79-.33.28-.8.86-1.21,1.02-.24.16-.27.19-.09.09l-.53-.25c-3.33-1.57-6.65-3.14-9.98-4.71-1.74-.82-3.26,1.77-1.51,2.59h0Z"/><path class="cls-1" d="M118.33,193.28v7.79c0,.78.69,1.54,1.5,1.5s1.5-.66,1.5-1.5v-7.79c0-.78-.69-1.54-1.5-1.5s-1.5.66-1.5,1.5h0Z"/><path class="cls-1" d="M113.85,210.92c3.36-.98,6.25-3.21,8.03-6.22l-2.36.3c2.25,1.74,4.67,3.1,7.35,4.08.76.28,1.64-.31,1.85-1.05.23-.84-.28-1.57-1.05-1.85-2.15-.78-4.21-1.9-6.03-3.31-.75-.58-1.82-.61-2.36.3-1.39,2.35-3.61,4.08-6.24,4.85-1.85.54-1.06,3.43.8,2.89h0Z"/><path class="cls-1" d="M84.25,170.94c.14-.05.27-.1.41-.13.07-.02.14-.03.21-.05.07,0,.29-.05.01,0s-.05,0,.01,0c.07,0,.14,0,.22,0,.14,0,.29,0,.43,0,.07,0,.3.03.02,0s-.01,0,.05,0c.13.02.26.05.39.09.14.04.28.09.41.14.23.08-.28-.14-.12-.05.06.03.13.06.2.09.24.12.46.27.68.42.13.09-.31-.26-.08-.05.04.04.09.08.14.12.11.1.21.2.3.31.04.05.11.11.14.16-.03-.06-.22-.31-.08-.1.07.11.15.22.21.33.04.06.07.13.1.19.06.12.09.31-.03-.1.04.14.1.27.14.41.21.76,1.07,1.3,1.85,1.05s1.27-1.04,1.05-1.85c-.84-3.02-4.45-5.01-7.44-3.89-.37.14-.69.33-.9.69-.19.32-.27.8-.15,1.16.23.72,1.06,1.34,1.85,1.05h-.02Z"/><path class="cls-1" d="M139.82,170.76c.16-.29.33-.57.53-.84.05-.07.27-.31,0,0,.04-.05.08-.1.12-.15.1-.13.21-.25.32-.37.22-.24.46-.47.71-.69.12-.11.26-.2.38-.32-.28.27-.07.06,0,0,.07-.05.13-.1.2-.14.27-.19.56-.36.85-.51.15-.08.29-.15.44-.22.07-.03.16-.06.23-.1-.13.07-.24.1-.04.02.63-.25,1.29-.42,1.96-.51.35-.05.73-.4.9-.69.19-.32.27-.8.15-1.16-.28-.85-1.01-1.17-1.85-1.05-3.12.45-5.98,2.5-7.51,5.24-.38.69-.19,1.67.54,2.05s1.64.19,2.05-.54h0Z"/><path class="cls-1" d="M56.54,153.42c2.8-11.39,4.94-22.94,6.4-34.58,1.46-11.64,2.08-23.48,2.42-35.28s.79-23.85,2.43-35.7c.79-5.7,1.69-11.4,2.64-17.08.89-5.34,1.93-10.68,3.56-15.85.8-2.55,1.75-5.05,2.9-7.46.67-1.39,2.08-5.26,4.23-4.29.98.45,1.71,1.51,2.36,2.33.77.98,1.56,1.96,2.37,2.92,1.58,1.86,3.23,3.67,4.92,5.43,6.61,6.88,13.87,13.09,20.45,19.99,3.34,3.5,6.51,7.18,9.23,11.19,2.95,4.34,5.24,9.04,7.15,13.92,1.91,4.88,3.7,10.35,5.71,15.46s4.12,9.88,6.38,14.73c8.81,18.98,19.24,37.49,24.3,57.96.62,2.52,1.15,5.06,1.6,7.61.33,1.9,3.22,1.09,2.89-.8-3.73-21.4-14.01-40.79-23.31-60.17-2.36-4.91-4.66-9.85-6.8-14.86s-4.06-10.3-5.94-15.52c-1.93-5.36-3.96-10.72-6.79-15.68-2.42-4.26-5.38-8.2-8.58-11.9-6.45-7.45-13.95-13.9-20.95-20.82-3.52-3.48-6.94-7.08-10.01-10.97-1.39-1.76-2.93-3.81-5.36-3.99s-4.14,1.7-5.24,3.63c-5.49,9.65-7.14,21.08-8.84,31.87-1.88,11.94-3.4,23.83-3.9,35.91-.51,12.29-.58,24.58-1.67,36.84-1.07,11.98-2.88,23.89-5.41,35.64-.63,2.91-1.3,5.82-2.01,8.71-.46,1.87,2.43,2.67,2.89.8h-.02Z"/></g></svg>