<svg width="226" height="230" viewBox="0 0 226 230" fill="none" xmlns="http://www.w3.org/2000/svg">
<g clip-path="url(#clip0_151_478)">
<path d="M190.56 197.61C196.11 191.31 200.44 183.93 203.17 175.99C203.8 174.15 204.51 172.23 204.8 170.31C204.98 169.16 205.13 167.35 204.23 166.44C203 165.2 200.32 167.05 199.12 167.64C197.07 168.64 195.05 169.7 193.06 170.81C188.55 173.33 184.21 176.15 180.04 179.21C179.08 179.92 177.81 178.95 177.78 177.91C177.32 159.61 176.43 141.33 175.08 123.07C173.73 104.81 171.94 86.6 169.7 68.43C169.13 63.82 168.54 59.21 167.91 54.6C167.63 52.53 167.5 50.34 166.98 48.31C166.75 47.42 166.13 45.47 165.13 46.74C163.87 48.36 162.98 50.41 161.97 52.19C160.89 54.1 159.82 56.01 158.79 57.95C156.75 61.76 154.83 65.65 153.21 69.66C150.16 77.2 148.46 85.3 144.57 92.5C142.55 96.24 139.83 99.51 137.22 102.85C134.61 106.19 132.16 109.62 129.83 113.14C125.13 120.25 121 127.72 117.44 135.47C115.62 139.43 113.85 143.44 112.25 147.5C110.9 150.93 109.66 154.6 109.81 158.33C109.88 160.16 110.39 161.87 111.33 163.44L108.74 164.95C104.09 155.3 98.4899 143.95 87.7699 139.98L89.6699 138.53C89.4399 145.87 89.5999 153.22 90.1699 160.55C90.3099 162.34 90.4699 164.13 90.6599 165.91C90.8499 167.69 91.1999 169.48 90.7399 171.22C90.0599 173.81 87.8099 175.4 85.7699 176.91C83.6199 178.49 81.9799 180.39 81.1499 182.97C80.3199 185.55 80.25 188.27 80.81 190.87C82.07 196.78 86.3699 201.44 90.8599 205.2C100.64 213.39 112.43 219.39 124.64 223.01C130.76 224.82 137.07 226.06 143.43 226.62C149.08 227.11 154.9 227.02 160.39 225.48C163.33 224.65 166.17 223.39 168.62 221.54C171.39 219.45 173.35 216.65 175.16 213.73C177.09 210.63 179 207.6 181.4 204.84C183.94 201.92 186.79 199.31 189.63 196.69C191.05 195.39 193.18 197.5 191.75 198.81C189.12 201.22 186.49 203.64 184.1 206.29C181.71 208.94 179.98 211.61 178.19 214.5C176.4 217.39 174.61 220.2 172.12 222.48C170.03 224.39 167.62 225.89 165.02 227C159.55 229.34 153.48 230 147.57 229.85C141.1 229.69 134.6 228.66 128.33 227.12C115.55 223.98 103.34 218.31 92.7499 210.48C87.6999 206.74 82.67 202.47 79.7599 196.78C77.14 191.66 76.5399 185.47 79.0199 180.18C80.3899 177.25 82.7199 175.51 85.2099 173.6C86.2799 172.77 87.4599 171.8 87.8199 170.43C88.2899 168.61 87.6699 166.3 87.4899 164.46C86.6499 155.85 86.38 147.19 86.6499 138.54C86.6799 137.64 87.5999 136.74 88.5499 137.09C100.15 141.39 106.25 152.94 111.32 163.44C112.15 165.16 109.74 166.63 108.73 164.95C104.39 157.74 108.27 149.18 111.21 142.24C114.73 133.93 118.57 125.79 123.21 118.03C125.48 114.23 127.9 110.52 130.47 106.91C133.04 103.3 135.99 99.76 138.67 96.12C141.35 92.48 143.23 88.84 144.76 84.77C146.29 80.7 147.45 76.71 148.86 72.7C151.89 64.11 156.26 56.11 160.77 48.23C161.67 46.65 162.52 44.49 164.24 43.61C165.68 42.87 167.33 43.32 168.38 44.49C169.43 45.66 169.89 47.33 170.12 48.9C170.46 51.25 170.77 53.61 171.09 55.96C173.65 74.98 175.72 94.07 177.3 113.2C178.88 132.33 179.97 151.53 180.57 170.73C180.64 173.12 180.71 175.51 180.77 177.9L178.51 176.6C182.67 173.54 187.02 170.72 191.53 168.2C193.79 166.94 196.08 165.75 198.41 164.63C200.46 163.65 202.75 162.4 205.03 163.41C208.64 165 208.08 169.86 207.23 172.94C205.94 177.6 204.12 182.13 201.87 186.42C199.35 191.21 196.23 195.66 192.66 199.71C191.38 201.16 189.27 199.03 190.54 197.59L190.56 197.61Z" fill="#579395"/>
<path d="M140.34 183.91C139.06 184.06 137.81 183.94 136.57 183.6C135.33 183.26 135.08 181.49 136.21 180.86C137.62 180.07 139.07 180.52 140 181.77C140.32 182.2 140.24 182.85 140 183.28C137.13 188.53 135.43 194.28 134.14 200.1C133.83 201.5 133.54 202.91 133.27 204.32C133.21 204.61 133.22 205.11 133.07 205.38C133.09 205.93 132.93 205.95 132.6 205.44C132.13 205.21 132.06 205.07 132.36 205.03C132.55 204.73 133.77 204.37 134.11 204.22C136.91 203.02 139.9 202.42 142.95 202.36L142.55 205.31C139.18 204.29 135.64 206.28 132.27 205.05C130.45 204.39 129.45 203.01 128.24 201.6C126.92 200.06 125.39 198.76 123.66 197.7C121.93 196.64 123.52 194.1 125.17 195.11C126.82 196.12 128.25 197.24 129.55 198.58C130.72 199.8 131.69 201.71 133.38 202.26C134.89 202.75 136.65 202.37 138.18 202.19C139.92 201.98 141.65 201.89 143.34 202.41C145.03 202.93 144.66 205.33 142.94 205.36C141.22 205.39 139.44 205.62 137.73 206.1C136.88 206.34 136.03 206.63 135.21 206.98C134.53 207.28 133.86 207.71 133.14 207.92C131.84 208.29 130.36 207.82 130.03 206.38C129.86 205.65 130.1 204.87 130.24 204.16C130.42 203.24 130.6 202.33 130.79 201.41C132.19 194.62 134.06 187.88 137.4 181.77V183.28L137.72 183.45L137.36 180.71C138.37 180.99 139.29 181.03 140.33 180.91C142.24 180.68 142.23 183.68 140.33 183.91H140.34Z" fill="#579395"/>
<path d="M156.01 185.29C157.85 184.47 159.81 184.56 161.63 185.41C163.27 186.18 164.6 187.7 165.06 189.47C165.26 190.23 164.81 191.13 164.01 191.32C163.21 191.51 162.38 191.08 162.16 190.27C162.12 190.13 162 189.92 162 189.77L162.09 189.97C162.07 189.92 162.04 189.87 162.02 189.81C161.99 189.75 161.96 189.68 161.92 189.62C161.84 189.48 161.76 189.35 161.67 189.22C161.52 189.01 161.57 189.15 161.7 189.25C161.64 189.21 161.58 189.11 161.53 189.05C161.42 188.92 161.29 188.8 161.17 188.68C161.12 188.63 161.06 188.59 161.01 188.54C160.76 188.32 161.16 188.64 161.04 188.56C160.76 188.37 160.49 188.19 160.19 188.04C160.11 188 160.02 187.98 159.95 187.93C160.05 187.99 160.25 188.04 160.03 187.97C159.88 187.92 159.73 187.87 159.58 187.82C159.41 187.77 159.24 187.74 159.07 187.71C158.76 187.65 159.44 187.74 159.13 187.71C159.04 187.71 158.96 187.69 158.87 187.69C158.71 187.69 158.55 187.69 158.4 187.69C158.33 187.69 158.26 187.7 158.19 187.7C157.89 187.72 158.53 187.63 158.25 187.7C158.08 187.73 157.91 187.77 157.75 187.82C157.62 187.86 157.1 188.08 157.54 187.88C156.82 188.2 155.89 188.11 155.49 187.34C155.15 186.69 155.26 185.63 156.03 185.29H156.01Z" fill="#579395"/>
<path d="M117.64 179.54C117.46 179.5 117.29 179.46 117.11 179.42C117.05 179.41 116.49 179.33 116.84 179.37C116.48 179.33 116.12 179.31 115.76 179.3C115.44 179.3 115.13 179.31 114.81 179.34C114.72 179.34 114.63 179.36 114.54 179.37C114.71 179.34 114.71 179.35 114.54 179.37C114.36 179.4 114.18 179.43 114.01 179.47C113.66 179.55 113.31 179.64 112.96 179.75C112.83 179.79 112.7 179.84 112.58 179.88C112.5 179.91 112.41 179.94 112.33 179.98C112.48 179.92 112.48 179.92 112.32 179.98C111.99 180.14 111.67 180.3 111.36 180.48C111.21 180.57 111.05 180.67 110.9 180.77C110.86 180.8 110.41 181.12 110.66 180.94C110.04 181.42 109.13 181.59 108.54 180.94C108.05 180.4 107.88 179.33 108.54 178.82C111.36 176.63 114.96 175.78 118.45 176.64C119.21 176.83 119.74 177.73 119.5 178.49C119.26 179.25 118.47 179.74 117.65 179.54H117.64Z" fill="#579395"/>
<path d="M167.59 209.28C172.24 208.94 176.97 209.48 181.4 210.95C185.83 212.42 189.55 214.66 193.77 216.18C198.12 217.75 202.7 218.69 207.18 219.79C211.96 220.97 216.73 222.14 221.51 223.32C223.38 223.78 222.59 226.68 220.71 226.21C216.09 225.07 211.48 223.93 206.86 222.8C202.24 221.67 197.79 220.75 193.41 219.23C189.03 217.71 185.28 215.47 181.04 214C176.8 212.53 172.16 211.95 167.59 212.28C165.66 212.42 165.67 209.42 167.59 209.28Z" fill="#579395"/>
<path d="M170.57 205.07C188.69 203.65 206.9 204.25 224.9 206.76C226.8 207.03 225.99 209.92 224.1 209.65C206.38 207.18 188.4 206.67 170.57 208.07C168.64 208.22 168.65 205.22 170.57 205.07Z" fill="#579395"/>
<path d="M100.63 187.5C90.9899 178.6 80.2799 171.22 68.7799 164.95C67.0799 164.03 68.5999 161.43 70.2899 162.36C82.0099 168.75 92.9299 176.32 102.75 185.38C104.17 186.69 102.05 188.81 100.63 187.5Z" fill="#579395"/>
<path d="M92.3899 191.41C84.5099 189.5 76.7299 187.24 69.0599 184.63C67.24 184.01 68.0199 181.11 69.8599 181.74C77.5299 184.35 85.3099 186.61 93.1899 188.52C95.0699 188.97 94.2699 191.87 92.3899 191.41Z" fill="#579395"/>
<path d="M178.68 181.73C177.27 178.3 173.52 176.62 170.36 175.19C168.61 174.4 166.84 173.66 165.16 172.74C163.13 171.64 161.37 170.19 159.56 168.78C157.61 167.26 155.61 165.97 153.2 165.31C150.64 164.61 147.97 164.31 145.36 163.89C139.8 163 134.24 162.07 128.66 161.24C122.33 160.3 115.83 159.63 109.46 160.54C108.65 160.66 107.86 160.34 107.61 159.49C107.41 158.79 107.86 157.76 108.66 157.64C120.57 155.94 132.71 158.84 144.43 160.72C149.91 161.6 155.45 162.03 160.05 165.41C162.02 166.86 163.84 168.51 165.95 169.75C167.75 170.8 169.67 171.61 171.57 172.47C175.73 174.34 179.76 176.51 181.58 180.94C182.31 182.72 179.41 183.5 178.69 181.74L178.68 181.73Z" fill="#579395"/>
<path d="M76.4199 202.57C73.5799 191.23 65.84 182.01 58.8 173C50.86 162.83 42.88 152.68 34.74 142.67C31.77 139.02 28.05 134.58 23.04 134.02C22.04 133.91 20.68 133.82 20.13 134.84C19.52 135.98 19.58 137.67 19.45 138.91C19.12 142.14 18.9199 145.39 18.8599 148.64C18.7399 155 19.1 161.38 20.02 167.68C20.7999 173.06 21.87 178.61 24.68 183.34C26.33 186.11 28.7599 188.13 30.7999 190.59C32.84 193.05 34.24 196.05 35.62 198.98C38.75 205.59 41.8699 212.21 44.9999 218.82C45.8199 220.56 43.2299 222.08 42.41 220.33C39.4599 214.09 36.51 207.84 33.56 201.6C32.22 198.77 31.01 195.78 29.12 193.26C27.23 190.74 24.8599 188.88 23.0799 186.37C19.7499 181.68 18.31 175.91 17.4 170.31C16.32 163.63 15.7799 156.86 15.8299 150.09C15.8499 146.76 16.02 143.43 16.32 140.11C16.55 137.61 16.3999 134.07 18.3899 132.19C20.3799 130.31 23.65 130.83 25.93 131.61C28.43 132.47 30.61 134.01 32.54 135.8C34.61 137.72 36.3699 139.94 38.1399 142.14C40.3099 144.84 42.4799 147.55 44.6399 150.26C48.9599 155.68 53.27 161.12 57.55 166.58C65.96 177.3 75.91 188.23 79.3 201.77C79.77 203.64 76.88 204.44 76.41 202.57H76.4199Z" fill="#579395"/>
<path d="M78.45 199.3C78.77 199.32 79.08 199.3 79.39 199.27L78.99 199.32C79.46 199.25 79.91 199.13 80.35 198.94L79.99 199.09C80.4 198.91 80.79 198.68 81.15 198.41L80.85 198.64C81.17 198.39 81.46 198.1 81.71 197.79L81.48 198.09C81.48 198.09 81.54 198.02 81.56 197.98C81.8 197.66 82.05 197.4 82.46 197.29C82.82 197.19 83.3 197.24 83.62 197.44C83.94 197.64 84.22 197.95 84.31 198.34C84.4 198.73 84.4 199.18 84.16 199.5C83.5 200.38 82.69 201.14 81.67 201.62C80.65 202.1 79.57 202.37 78.45 202.3C77.67 202.26 76.91 201.64 76.95 200.8C76.98 200.02 77.61 199.25 78.45 199.3Z" fill="#579395"/>
<path d="M33.27 151.6C32.29 145.59 28.78 140.17 23.58 136.95C21.94 135.93 23.45 133.34 25.09 134.36C30.89 137.96 35.05 144.04 36.15 150.8C36.28 151.6 35.94 152.41 35.1 152.65C34.38 152.85 33.39 152.41 33.25 151.6H33.27Z" fill="#579395"/>
<path d="M0.229969 185.52C3.07997 180.95 3.65996 175.34 5.74996 170.43C8.16996 164.75 11.01 159.22 13.66 153.64C14.49 151.9 17.08 153.42 16.25 155.15C13.59 160.73 10.69 166.27 8.31997 171.98C6.26997 176.92 5.67997 182.43 2.80997 187.03C1.78997 188.66 -0.810041 187.16 0.219959 185.52H0.229969Z" fill="#579395"/>
<path d="M22.52 128.97C21.7999 123.55 25.1 118.77 27.41 114.15C29.97 109.04 32.0199 103.69 33.9999 98.3301C38.1099 87.2201 42.13 76.0601 46.08 64.8901C48.34 58.5101 50.57 52.1301 52.77 45.7301C53.4 43.9201 56.3 44.7001 55.66 46.5301C51.81 57.6801 47.8899 68.8101 43.8899 79.9101C39.8899 91.0101 36.41 101.61 31.71 112.03C30.44 114.85 28.96 117.55 27.56 120.32C26.16 123.09 25.09 125.87 25.51 128.97C25.62 129.78 24.74 130.46 24.01 130.47C23.11 130.47 22.62 129.77 22.51 128.97H22.52Z" fill="#579395"/>
<path d="M57.35 41.52C64.27 46.81 71.18 52.1 78.1 57.39L75.84 58.69C75.3 50.11 72.03 41.77 66.56 35.12C65.91 34.34 66.01 32.83 67.22 32.61C75.62 31.09 83.36 27.08 89.4 21.05L90.46 23.61C81.04 22.51 71.62 21.42 62.2 20.32C61.37 20.22 60.74 19.71 60.7 18.82C60.44 13.04 60.54 7.25001 60.99 1.48001L63.55 2.54001C59.09 7.56001 54.1 13.23 53.71 20.27C53.66 21.21 52.79 22.02 51.81 21.72C42.9 18.96 33.99 16.19 25.08 13.43L26.54 10.92C33.29 19.06 40.04 27.2 46.79 35.34C47.35 36.01 47.35 36.78 46.79 37.46C42.07 43.2 38.4 49.77 35.97 56.8L33.77 55.11C41.58 51.59 48.97 47.16 55.7 41.86C57.2 40.68 59.34 42.79 57.82 43.98C50.88 49.45 43.35 54.07 35.29 57.7C34.21 58.19 32.62 57.37 33.09 56.01C35.69 48.47 39.61 41.51 44.68 35.35V37.47C37.93 29.33 31.18 21.19 24.43 13.05C23.54 11.98 24.34 10.06 25.89 10.54C34.8 13.3 43.71 16.07 52.62 18.83L50.72 20.28C51.17 12.35 56.39 6.10001 61.44 0.430012C62.27 -0.509988 64.1 0.210012 64 1.49001C63.55 7.26001 63.46 13.05 63.71 18.83L62.21 17.33C71.63 18.43 81.05 19.52 90.47 20.62C91.7 20.76 92.53 22.19 91.53 23.18C85.15 29.55 76.9 33.9 68.02 35.51L68.68 33C74.69 40.29 78.25 49.25 78.84 58.69C78.91 59.74 77.48 60.67 76.58 59.99C69.66 54.7 62.75 49.41 55.83 44.12C54.32 42.96 55.81 40.36 57.34 41.53L57.35 41.52Z" fill="#579395"/>
</g>
<defs>
<clipPath id="clip0_151_478">
<rect width="225.99" height="229.88" fill="white" transform="matrix(-1 0 0 1 225.99 0)"/>
</clipPath>
</defs>
</svg>
