<svg width="563" height="201" viewBox="0 0 563 201" fill="none" xmlns="http://www.w3.org/2000/svg">
<g filter="url(#filter0_d_268_330)">
<rect x="4" width="555" height="193" rx="50" fill="#F7B72E" fill-opacity="0.7" shape-rendering="crispEdges"/>
</g>
<path d="M115.125 50.3125L115.812 78.5625H113.25C112.042 71.4792 109.062 65.7917 104.312 61.5C99.6042 57.1667 94.5 55 89 55C84.75 55 81.375 56.1458 78.875 58.4375C76.4167 60.6875 75.1875 63.2917 75.1875 66.25C75.1875 68.125 75.625 69.7917 76.5 71.25C77.7083 73.2083 79.6458 75.1458 82.3125 77.0625C84.2708 78.4375 88.7917 80.875 95.875 84.375C105.792 89.25 112.479 93.8542 115.938 98.1875C119.354 102.521 121.062 107.479 121.062 113.062C121.062 120.146 118.292 126.25 112.75 131.375C107.25 136.458 100.25 139 91.75 139C89.0833 139 86.5625 138.729 84.1875 138.188C81.8125 137.646 78.8333 136.625 75.25 135.125C73.25 134.292 71.6042 133.875 70.3125 133.875C69.2292 133.875 68.0833 134.292 66.875 135.125C65.6667 135.958 64.6875 137.229 63.9375 138.938H61.625V106.938H63.9375C65.7708 115.938 69.2917 122.812 74.5 127.562C79.75 132.271 85.3958 134.625 91.4375 134.625C96.1042 134.625 99.8125 133.354 102.562 130.812C105.354 128.271 106.75 125.312 106.75 121.938C106.75 119.938 106.208 118 105.125 116.125C104.083 114.25 102.479 112.479 100.312 110.812C98.1458 109.104 94.3125 106.896 88.8125 104.188C81.1042 100.396 75.5625 97.1667 72.1875 94.5C68.8125 91.8333 66.2083 88.8542 64.375 85.5625C62.5833 82.2708 61.6875 78.6458 61.6875 74.6875C61.6875 67.9375 64.1667 62.1875 69.125 57.4375C74.0833 52.6875 80.3333 50.3125 87.875 50.3125C90.625 50.3125 93.2917 50.6458 95.875 51.3125C97.8333 51.8125 100.208 52.75 103 54.125C105.833 55.4583 107.812 56.125 108.938 56.125C110.021 56.125 110.875 55.7917 111.5 55.125C112.125 54.4583 112.708 52.8542 113.25 50.3125H115.125ZM153.75 57.1875V78.5625H167.625V84.75H153.75V120.812C153.75 124.188 153.896 126.375 154.188 127.375C154.521 128.333 155.083 129.125 155.875 129.75C156.667 130.333 157.396 130.625 158.062 130.625C160.771 130.625 163.333 128.562 165.75 124.438L167.625 125.812C164.25 133.812 158.771 137.812 151.188 137.812C147.479 137.812 144.333 136.792 141.75 134.75C139.208 132.667 137.583 130.354 136.875 127.812C136.458 126.396 136.25 122.562 136.25 116.312V84.75H128.625V82.5625C133.875 78.8542 138.333 74.9583 142 70.875C145.708 66.7917 148.938 62.2292 151.688 57.1875H153.75ZM228.688 77.9375L221.625 86.125C224.333 89.8333 226.125 92.9792 227 95.5625C228.125 98.9375 228.688 102.875 228.688 107.375C228.688 113.375 227.562 118.854 225.312 123.812C223.104 128.729 219.854 132.458 215.562 135C211.271 137.5 206.625 138.75 201.625 138.75C197.958 138.75 194.708 138.167 191.875 137C189.083 135.875 186.042 133.896 182.75 131.062L176.062 138.75L173.125 136L180.062 127.875C177.938 124.5 176.479 121.521 175.688 118.938C174.688 115.562 174.188 111.917 174.188 108C174.188 99.6667 176.583 92.3958 181.375 86.1875C186.167 79.9375 192.917 76.8125 201.625 76.8125C205.083 76.8125 208.104 77.3125 210.688 78.3125C213.271 79.2708 215.958 80.8958 218.75 83.1875L225.688 75.1875L228.688 77.9375ZM210 93.25C209.583 88.7083 208.646 85.5833 207.188 83.875C205.729 82.125 204.021 81.25 202.062 81.25C200.312 81.25 198.958 81.5625 198 82.1875C196.667 83.1042 195.562 84.5625 194.688 86.5625C193.854 88.5208 193.292 92.1667 193 97.5C192.958 98.9167 192.896 104.292 192.812 113.625L210 93.25ZM192.812 119.562C193.021 125.229 193.938 129.104 195.562 131.188C197.188 133.271 199.104 134.312 201.312 134.312C203.188 134.312 204.646 133.896 205.688 133.062C207.146 131.896 208.25 130.042 209 127.5C210 124.125 210.5 118.875 210.5 111.75C210.5 111.333 210.438 107.146 210.312 99.1875L192.812 119.562ZM260.375 57.1875V78.5625H274.25V84.75H260.375V120.812C260.375 124.188 260.521 126.375 260.812 127.375C261.146 128.333 261.708 129.125 262.5 129.75C263.292 130.333 264.021 130.625 264.688 130.625C267.396 130.625 269.958 128.562 272.375 124.438L274.25 125.812C270.875 133.812 265.396 137.812 257.812 137.812C254.104 137.812 250.958 136.792 248.375 134.75C245.833 132.667 244.208 130.354 243.5 127.812C243.083 126.396 242.875 122.562 242.875 116.312V84.75H235.25V82.5625C240.5 78.8542 244.958 74.9583 248.625 70.875C252.333 66.7917 255.562 62.2292 258.312 57.1875H260.375ZM335.688 52.25V86.0625C338.896 82.6875 341.833 80.3125 344.5 78.9375C347.167 77.5208 349.938 76.8125 352.812 76.8125C356.479 76.8125 359.604 77.8542 362.188 79.9375C364.812 82.0208 366.542 84.4792 367.375 87.3125C368.25 90.1042 368.688 94.8333 368.688 101.5V124.312C368.688 128.771 369.104 131.562 369.938 132.688C370.771 133.771 372.458 134.458 375 134.75V137H345.375V134.75C347.458 134.458 349.021 133.625 350.062 132.25C350.812 131.167 351.188 128.521 351.188 124.312V98.25C351.188 93.4167 351 90.3958 350.625 89.1875C350.25 87.9375 349.604 86.9792 348.688 86.3125C347.812 85.6042 346.812 85.25 345.688 85.25C344.021 85.25 342.396 85.8333 340.812 87C339.229 88.125 337.521 90.125 335.688 93V124.312C335.688 128.479 336 131.083 336.625 132.125C337.417 133.542 339.042 134.417 341.5 134.75V137H311.875V134.75C314.333 134.5 316.083 133.708 317.125 132.375C317.833 131.458 318.188 128.771 318.188 124.312V64.9375C318.188 60.5208 317.771 57.7708 316.938 56.6875C316.146 55.6042 314.458 54.8958 311.875 54.5625V52.25H335.688ZM432.562 105.688H400.5C400.875 113.438 402.938 119.562 406.688 124.062C409.562 127.521 413.021 129.25 417.062 129.25C419.562 129.25 421.833 128.562 423.875 127.188C425.917 125.771 428.104 123.25 430.438 119.625L432.562 121C429.396 127.458 425.896 132.042 422.062 134.75C418.229 137.417 413.792 138.75 408.75 138.75C400.083 138.75 393.521 135.417 389.062 128.75C385.479 123.375 383.688 116.708 383.688 108.75C383.688 99 386.312 91.25 391.562 85.5C396.854 79.7083 403.042 76.8125 410.125 76.8125C416.042 76.8125 421.167 79.25 425.5 84.125C429.875 88.9583 432.229 96.1458 432.562 105.688ZM417.188 101.5C417.188 94.7917 416.812 90.1875 416.062 87.6875C415.354 85.1875 414.229 83.2917 412.688 82C411.812 81.25 410.646 80.875 409.188 80.875C407.021 80.875 405.25 81.9375 403.875 84.0625C401.417 87.7708 400.188 92.8542 400.188 99.3125V101.5H417.188ZM464.188 78.5625V91.8125C468.062 85.7708 471.458 81.7708 474.375 79.8125C477.292 77.8125 480.104 76.8125 482.812 76.8125C485.146 76.8125 487 77.5417 488.375 79C489.792 80.4167 490.5 82.4375 490.5 85.0625C490.5 87.8542 489.812 90.0208 488.438 91.5625C487.104 93.1042 485.479 93.875 483.562 93.875C481.354 93.875 479.438 93.1667 477.812 91.75C476.188 90.3333 475.229 89.5417 474.938 89.375C474.521 89.125 474.042 89 473.5 89C472.292 89 471.146 89.4583 470.062 90.375C468.354 91.7917 467.062 93.8125 466.188 96.4375C464.854 100.479 464.188 104.938 464.188 109.812V123.25L464.25 126.75C464.25 129.125 464.396 130.646 464.688 131.312C465.188 132.438 465.917 133.271 466.875 133.812C467.875 134.312 469.542 134.625 471.875 134.75V137H440.312V134.75C442.854 134.542 444.562 133.854 445.438 132.688C446.354 131.479 446.812 128.333 446.812 123.25V90.9375C446.812 87.6042 446.646 85.4792 446.312 84.5625C445.896 83.3958 445.292 82.5417 444.5 82C443.708 81.4583 442.312 81.0833 440.312 80.875V78.5625H464.188Z" fill="#1D326F"/>
<defs>
<filter id="filter0_d_268_330" x="0" y="0" width="563" height="201" filterUnits="userSpaceOnUse" color-interpolation-filters="sRGB">
<feFlood flood-opacity="0" result="BackgroundImageFix"/>
<feColorMatrix in="SourceAlpha" type="matrix" values="0 0 0 0 0 0 0 0 0 0 0 0 0 0 0 0 0 0 127 0" result="hardAlpha"/>
<feOffset dy="4"/>
<feGaussianBlur stdDeviation="2"/>
<feComposite in2="hardAlpha" operator="out"/>
<feColorMatrix type="matrix" values="0 0 0 0 0.96974 0 0 0 0 0.719528 0 0 0 0 0.179597 0 0 0 0.75 0"/>
<feBlend mode="normal" in2="BackgroundImageFix" result="effect1_dropShadow_268_330"/>
<feBlend mode="normal" in="SourceGraphic" in2="effect1_dropShadow_268_330" result="shape"/>
</filter>
</defs>
</svg>
